<svg xmlns="http://www.w3.org/2000/svg" xmlns:xlink="http://www.w3.org/1999/xlink" width="40" zoomAndPan="magnify" viewBox="0 0 30 30.000001" height="40" preserveAspectRatio="xMidYMid meet" version="1.0"><defs><g/><clipPath id="62f9c68edc"><path d="M 0.484375 0 L 29.515625 0 L 29.515625 29.03125 L 0.484375 29.03125 Z M 0.484375 0 " clip-rule="nonzero"/></clipPath></defs><g clip-path="url(#62f9c68edc)"><path fill="#ffffff" d="M 0.484375 0 L 29.515625 0 L 29.515625 29.03125 L 0.484375 29.03125 Z M 0.484375 0 " fill-opacity="1" fill-rule="nonzero"/><path fill="#ffffff" d="M 0.484375 0 L 29.515625 0 L 29.515625 29.03125 L 0.484375 29.03125 Z M 0.484375 0 " fill-opacity="1" fill-rule="nonzero"/></g><g fill="#000000" fill-opacity="1"><g transform="translate(8.60383, 22.500002)"><g><path d="M 11.875 -4.609375 C 11.875 -3.109375 11.332031 -1.925781 10.25 -1.0625 C 9.175781 -0.195312 7.679688 0.234375 5.765625 0.234375 C 3.992188 0.234375 2.425781 -0.0976562 1.0625 -0.765625 L 1.0625 -4.03125 C 2.1875 -3.53125 3.132812 -3.175781 3.90625 -2.96875 C 4.675781 -2.769531 5.382812 -2.671875 6.03125 -2.671875 C 6.800781 -2.671875 7.390625 -2.816406 7.796875 -3.109375 C 8.210938 -3.410156 8.421875 -3.851562 8.421875 -4.4375 C 8.421875 -4.757812 8.328125 -5.046875 8.140625 -5.296875 C 7.960938 -5.554688 7.695312 -5.800781 7.34375 -6.03125 C 7 -6.269531 6.285156 -6.644531 5.203125 -7.15625 C 4.191406 -7.632812 3.429688 -8.09375 2.921875 -8.53125 C 2.421875 -8.96875 2.019531 -9.472656 1.71875 -10.046875 C 1.414062 -10.628906 1.265625 -11.3125 1.265625 -12.09375 C 1.265625 -13.5625 1.757812 -14.710938 2.75 -15.546875 C 3.738281 -16.390625 5.113281 -16.8125 6.875 -16.8125 C 7.726562 -16.8125 8.546875 -16.707031 9.328125 -16.5 C 10.117188 -16.300781 10.941406 -16.015625 11.796875 -15.640625 L 10.65625 -12.90625 C 9.769531 -13.269531 9.035156 -13.523438 8.453125 -13.671875 C 7.878906 -13.816406 7.3125 -13.890625 6.75 -13.890625 C 6.09375 -13.890625 5.582031 -13.734375 5.21875 -13.421875 C 4.863281 -13.109375 4.6875 -12.703125 4.6875 -12.203125 C 4.6875 -11.898438 4.757812 -11.628906 4.90625 -11.390625 C 5.050781 -11.160156 5.28125 -10.9375 5.59375 -10.71875 C 5.90625 -10.507812 6.648438 -10.125 7.828125 -9.5625 C 9.367188 -8.820312 10.425781 -8.078125 11 -7.328125 C 11.582031 -6.585938 11.875 -5.679688 11.875 -4.609375 Z M 11.875 -4.609375 "/></g></g></g></svg>